<svg xmlns="http://www.w3.org/2000/svg" viewBox="0 0 96 96" role="img" aria-label="Winur Family Hub">
  <rect width="96" height="96" rx="28" fill="#ef5b93"/>
  <path d="M22 43c0-15 11-25 26-25s26 10 26 25c0 18-18 29-26 35-8-6-26-17-26-35Z" fill="#fff7fa"/>
  <path d="M33 43c0-8 6-14 15-14s15 6 15 14c0 9-9 15-15 19-6-4-15-10-15-19Z" fill="#ffd7e6"/>
  <circle cx="39" cy="41" r="4" fill="#ef5b93"/>
  <circle cx="57" cy="41" r="4" fill="#ef5b93"/>
  <path d="M40 52c4 4 12 4 16 0" fill="none" stroke="#ef5b93" stroke-width="5" stroke-linecap="round"/>
</svg>
